<?xml version="1.0" encoding="UTF-8" standalone="no"?>
<!-- Uploaded to: SVG Repo, www.svgrepo.com, Generator: SVG Repo Mixer Tools -->

<svg
   width="800px"
   height="800px"
   viewBox="0 0 128 128"
   data-name="Слой 1"
   id="Слой_1"
   version="1.1"
   sodipodi:docname="computer-laptop-svgrepo-com.svg"
   xml:space="preserve"
   inkscape:version="1.4.2 (f4327f4, 2025-05-13)"
   xmlns:inkscape="http://www.inkscape.org/namespaces/inkscape"
   xmlns:sodipodi="http://sodipodi.sourceforge.net/DTD/sodipodi-0.dtd"
   xmlns="http://www.w3.org/2000/svg"
   xmlns:svg="http://www.w3.org/2000/svg"><sodipodi:namedview
     id="namedview4"
     pagecolor="#505050"
     bordercolor="#eeeeee"
     borderopacity="1"
     inkscape:showpageshadow="0"
     inkscape:pageopacity="0"
     inkscape:pagecheckerboard="0"
     inkscape:deskcolor="#505050"
     inkscape:zoom="0.71329397"
     inkscape:cx="145.10147"
     inkscape:cy="445.11802"
     inkscape:window-width="1920"
     inkscape:window-height="1009"
     inkscape:window-x="-8"
     inkscape:window-y="-8"
     inkscape:window-maximized="1"
     inkscape:current-layer="Слой_1" /><defs
     id="defs1"><style
       id="style1">.cls-1{fill:#ffffff;}.cls-2{fill:#424242;}.cls-3{fill:#bdbdbd;}</style></defs><title
     id="title1" /><path
     class="cls-1"
     d="M106,22h4.06A4,4,0,0,1,114,25.94V90.06A4,4,0,0,1,110.06,94H17.94A4,4,0,0,1,14,90.06V25.94A4,4,0,0,1,17.94,22H106Z"
     id="path1"
     style="fill:#a0a0a0;fill-opacity:1" /><path
     class="cls-2"
     d="M110.06,96H17.94A6,6,0,0,1,12,90.06V25.94A6,6,0,0,1,17.94,20h92.11A6,6,0,0,1,116,25.94V90.06A6,6,0,0,1,110.06,96ZM17.94,24A2,2,0,0,0,16,25.94V90.06A2,2,0,0,0,17.94,92h92.11A2,2,0,0,0,112,90.06V25.94A2,2,0,0,0,110.06,24Z"
     id="path2"
     style="fill:#000000;fill-opacity:1" /><path
     class="cls-3"
     d="M126,94v.5c0,3.58-2.92,7.5-6.5,7.5H8.5C4.92,102,2,98.07,2,94.5V94Z"
     id="path3"
     style="fill:#a0a0a0;fill-opacity:1" /><path
     class="cls-2"
     d="M119.5,104H8.5C3.64,104,0,99,0,94.5V94a2,2,0,0,1,2-2H126a2,2,0,0,1,2,2v.5C128,99,124.36,104,119.5,104ZM4.23,96c.6,2,2.33,4,4.27,4h111c1.95,0,3.67-2,4.27-4Z"
     id="path4"
     style="fill:#000000;fill-opacity:1" /><path
     d="m 50.105264,34 v 5.052631 h -5.052633 v 5.052631 H 40 v 2.526316 h 5.052631 v 2.526317 H 40 v 2.526314 h 5.052631 v 2.526313 H 40 v 2.526324 h 5.052631 V 59.26316 H 40 v 2.526313 h 5.052631 v 2.526313 H 40 v 2.526323 h 5.052631 v 2.526313 H 40 v 2.526313 h 5.052631 v 5.052636 h 5.052633 v 5.052627 h 2.526315 v -5.052627 h 2.526316 v 5.052627 h 2.526315 v -5.052627 h 2.526317 v 5.052627 h 2.526315 v -5.052627 h 2.526316 v 5.052627 h 2.526315 v -5.052627 h 2.526315 v 5.052627 h 2.526317 v -5.052627 h 2.526315 v 5.052627 h 2.526316 v -5.052627 h 5.052633 V 71.894735 H 88 V 69.368422 H 82.947369 V 66.842109 H 88 V 64.315786 H 82.947369 V 61.789473 H 88 V 59.26316 H 82.947369 V 56.736846 H 88 V 54.210522 H 82.947369 V 51.684209 H 88 V 49.157895 H 82.947369 V 46.631578 H 88 v -2.526316 h -5.052631 v -1.263157 l -3.789473,-3.789474 h -1.26316 V 34 H 75.36842 v 5.052631 H 72.842105 V 34 h -2.526317 v 5.052631 H 67.789473 V 34 h -2.526315 v 5.052631 H 62.736842 V 34 h -2.526315 v 5.052631 H 57.68421 V 34 h -2.526315 v 5.052631 H 52.631579 V 34 Z m -2.526316,7.578947 h 30.315788 l 2.526317,2.526315 V 74.421048 H 47.578948 Z"
     style="fill:#222222;fill-opacity:1;stroke:none;stroke-width:0px"
     id="path1-9" /><g
     style="fill:#000000"
     id="g4"
     transform="matrix(0.88888889,0,0,0.88888889,48,42)"><path
       d="m 18,14.05 a 4,4 0 1 0 4,4 4,4 0 0 0 -4,-4 z m 0,6.44 A 2.42,2.42 0 1 1 20.42,18.07 2.42,2.42 0 0 1 18,20.49 Z"
       class="clr-i-outline clr-i-outline-path-1"
       id="path1-8"
       style="fill:#000000;fill-opacity:1" /><path
       d="M 24.23,11.71 A 39.14,39.14 0 0 0 19.66,7.79 22.86,22.86 0 0 1 23.14,6.07 c 0.32,-0.12 0.62,-0.21 0.92,-0.3 a 2.28,2.28 0 0 0 3.81,-0.46 3.31,3.31 0 0 1 1.92,0.84 c 1.19,1.19 1.22,3.59 0.1,6.58 0.49,0.65 0.94,1.31 1.35,2 0.17,-0.4 0.35,-0.79 0.49,-1.18 1.47,-3.85 1.28,-7 -0.53,-8.78 A 5.29,5.29 0 0 0 27.87,3.33 2.29,2.29 0 0 0 23.56,3.87 C 23.19,3.98 22.82,4.09 22.43,4.24 A 25.79,25.79 0 0 0 17.86,6.59 26.21,26.21 0 0 0 13.28,4.2 C 9.43,2.74 6.28,2.92 4.51,4.73 2.85,6.4 2.58,9.17 3.68,12.59 a 2.28,2.28 0 0 0 1.59,3.67 c 0.32,0.61 0.67,1.22 1.06,1.82 A 25.54,25.54 0 0 0 4,22.66 c -1.47,3.84 -1.28,7 0.53,8.77 a 5.63,5.63 0 0 0 4.12,1.51 13.34,13.34 0 0 0 4.65,-1 26.21,26.21 0 0 0 4.58,-2.35 25.79,25.79 0 0 0 4.55,2.41 14.16,14.16 0 0 0 3.65,0.9 2.3,2.3 0 0 0 4.38,-0.9 4.55,4.55 0 0 0 0.74,-0.57 c 1.81,-1.81 2,-4.93 0.53,-8.77 A 32.68,32.68 0 0 0 24.23,11.71 Z M 12.57,30.09 C 9.57,31.24 7.12,31.22 5.92,30.01 4.72,28.8 4.69,26.39 5.85,23.37 a 22.77,22.77 0 0 1 1.71,-3.48 40.19,40.19 0 0 0 3.92,4.56 c 0.43,0.43 0.87,0.85 1.31,1.25 q 0.9,-0.46 1.83,-1.05 c -0.58,-0.52 -1.16,-1 -1.72,-1.61 A 34,34 0 0 1 7.16,15.57 2.29,2.29 0 0 0 5.5,11.69 v 0 C 4.75,9.19 4.88,7.2 5.93,6.15 a 3.72,3.72 0 0 1 2.72,-0.92 11.4,11.4 0 0 1 3.93,0.84 22.86,22.86 0 0 1 3.48,1.72 39.14,39.14 0 0 0 -4.57,3.92 c -0.44,0.44 -0.87,0.9 -1.29,1.36 a 20.27,20.27 0 0 0 1,1.85 c 0.54,-0.61 1.09,-1.21 1.68,-1.8 a 36.33,36.33 0 0 1 5,-4.17 36.88,36.88 0 0 1 4.95,4.17 36.26,36.26 0 0 1 4.17,5 37,37 0 0 1 -4.17,5 30.68,30.68 0 0 1 -10.26,6.97 z M 29.79,30 29.63,30.13 a 2.27,2.27 0 0 0 -3.5,0.72 12.57,12.57 0 0 1 -3,-0.77 22,22 0 0 1 -3.48,-1.72 39.14,39.14 0 0 0 4.57,-3.92 38.26,38.26 0 0 0 3.92,-4.56 22.88,22.88 0 0 1 1.72,3.48 C 31,26.39 31,28.81 29.79,30 Z"
       class="clr-i-outline clr-i-outline-path-2"
       id="path2-8"
       style="fill:#000000;fill-opacity:1" /><rect
       x="0"
       y="0"
       width="36"
       height="36"
       fill-opacity="0"
       id="rect2" /></g></svg>
